# xmcd
#
# Track frame offsets:
#	150
#	19860
#	31801
#	52182
#	74615
#	91384
#	106582
#	122338
#	136630
#	155250
#	171774
#	179669
#
# Disc length: 2630 seconds
#
# Revision: 0
# Processed by: cddbd v1.5.2PL0 Copyright (c) Steve Scherf et al.
# Submitted via: dBpowerAMP V4.0
#
DISCID=960a440c
DTITLE=Steve Forbert - Strange names and New Sensations
DYEAR=2007
DGENRE=Country
TTITLE0=Middle Age
TTITLE1=Strange Names (north New Jerseys got em')
TTITLE2=Simply Spalding Gray
TTITLE3=Man, I Miss That Girl
TTITLE4=You're Meant for me
TTITLE5=I Will sing Your Praise
TTITLE6=Something Special
TTITLE7=My Seaside Brown Eyed Girl
TTITLE8=The Baghdad Dream
TTITLE9=Thirty more Years
TTITLE10=Around the Bend
TTITLE11=Romeo's Tune
EXTD=
EXTT0=
EXTT1=
EXTT2=
EXTT3=
EXTT4=
EXTT5=
EXTT6=
EXTT7=
EXTT8=
EXTT9=
EXTT10=
EXTT11=
PLAYORDER=
